<?xml version="1.0" encoding="UTF-8" standalone="no"?>
<!-- Created with Inkscape (http://www.inkscape.org/) -->
<svg
   xmlns:svg="http://www.w3.org/2000/svg"
   xmlns="http://www.w3.org/2000/svg"
   xmlns:xlink="http://www.w3.org/1999/xlink"
   version="1.0"
   width="125"
   height="75"
   id="svg2926"
   xml:space="preserve"><defs
     id="defs2929"><linearGradient
       id="linearGradient4221"><stop
         id="stop4223"
         style="stop-color:#000000;stop-opacity:1"
         offset="0" /><stop
         id="stop4225"
         style="stop-color:#000000;stop-opacity:0"
         offset="1" /></linearGradient><clipPath
       id="clipPath2941"><path
         d="M 0,60 L 100,60 L 100,0 L 0,0 L 0,60 z"
         id="path2943" /></clipPath><radialGradient
       cx="0"
       cy="0"
       r="1"
       fx="0"
       fy="0"
       id="radialGradient2965"
       gradientUnits="userSpaceOnUse"
       gradientTransform="matrix(53.138718,-29.095749,-33.115433,-46.683426,41.251465,49.520508)"
       spreadMethod="pad"><stop
         id="stop2967"
         style="stop-color:#c8c8c8;stop-opacity:1"
         offset="0" /><stop
         id="stop2969"
         style="stop-color:#f0f0e6;stop-opacity:1"
         offset="1" /></radialGradient><clipPath
       id="clipPath2977"><path
         d="M 0,60 L 100,60 L 100,0 L 0,0 L 0,60 z"
         id="path2979" /></clipPath><radialGradient
       cx="0"
       cy="0"
       r="1"
       fx="0"
       fy="0"
       id="radialGradient2997"
       gradientUnits="userSpaceOnUse"
       gradientTransform="matrix(11.347,-6.2135773,4.8227997,6.7980347,25.595703,29.599121)"
       spreadMethod="pad"><stop
         id="stop2999"
         style="stop-color:#ffffff;stop-opacity:1"
         offset="0" /><stop
         id="stop3001"
         style="stop-color:#c8c8c8;stop-opacity:1"
         offset="1" /></radialGradient><clipPath
       id="clipPath3009"><path
         d="M 0,60 L 100,60 L 100,0 L 0,0 L 0,60 z"
         id="path3011" /></clipPath><clipPath
       id="clipPath3021"><path
         d="M 12.6836,34.5303 L 35.3853,34.5303 L 35.3853,16.1943 L 12.6836,16.1943 L 12.6836,34.5303 z"
         id="path3023" /></clipPath><radialGradient
       cx="0"
       cy="0"
       r="1"
       fx="0"
       fy="0"
       id="radialGradient3045"
       gradientUnits="userSpaceOnUse"
       gradientTransform="matrix(6.0399323,-3.3072662,3.7641754,5.305954,31.693848,38.191894)"
       spreadMethod="pad"><stop
         id="stop3047"
         style="stop-color:#ffffff;stop-opacity:1"
         offset="0" /><stop
         id="stop3049"
         style="stop-color:#c8c8c8;stop-opacity:1"
         offset="1" /></radialGradient><clipPath
       id="clipPath3057"><path
         d="M 0,60 L 100,60 L 100,0 L 0,0 L 0,60 z"
         id="path3059" /></clipPath><clipPath
       id="clipPath3069"><path
         d="M 24.2422,42.9629 L 40.0811,42.9629 L 40.0811,28.9434 L 24.2422,28.9434 L 24.2422,42.9629 z"
         id="path3071" /></clipPath><clipPath
       id="clipPath3085"><path
         d="M 12.4336,30.0757 L 19.2544,30.0757 L 19.2544,24.4033 L 12.4336,24.4033 L 12.4336,30.0757 z"
         id="path3087" /></clipPath><linearGradient
       x1="0"
       y1="0"
       x2="1"
       y2="0"
       id="linearGradient3093"
       gradientUnits="userSpaceOnUse"
       gradientTransform="matrix(0.997879,-1.3681335,1.3681335,0.997879,14.733398,29.153809)"
       spreadMethod="pad"><stop
         id="stop3095"
         style="stop-color:#000000;stop-opacity:1"
         offset="0" /><stop
         id="stop3097"
         style="stop-color:#000000;stop-opacity:1"
         offset="1" /></linearGradient><clipPath
       id="clipPath3117"><path
         d="M 29.2686,23.874 L 32.4722,23.874 L 32.4722,16.3643 L 29.2686,16.3643 L 29.2686,23.874 z"
         id="path3119" /></clipPath><linearGradient
       x1="0"
       y1="0"
       x2="1"
       y2="0"
       id="linearGradient3125"
       gradientUnits="userSpaceOnUse"
       gradientTransform="matrix(1.3653259,0.1718445,0.1718445,-1.3653259,30.808105,20.103516)"
       spreadMethod="pad"><stop
         id="stop3127"
         style="stop-color:#000000;stop-opacity:1"
         offset="0" /><stop
         id="stop3129"
         style="stop-color:#000000;stop-opacity:1"
         offset="1" /></linearGradient><clipPath
       id="clipPath3185"><path
         d="M 6.53223,53.7231 L 53.4297,53.7231 L 53.4297,12.5186 L 6.53223,12.5186 L 6.53223,53.7231 z"
         id="path3187" /></clipPath><radialGradient
       cx="0"
       cy="0"
       r="1"
       fx="0"
       fy="0"
       id="radialGradient3217"
       gradientUnits="userSpaceOnUse"
       gradientTransform="matrix(62.857712,0,0,-55.226776,69.844727,51.121582)"
       spreadMethod="pad"><stop
         id="stop3219"
         style="stop-color:#99603f;stop-opacity:1"
         offset="0" /><stop
         id="stop3221"
         style="stop-color:#ecebc3;stop-opacity:1"
         offset="1" /></radialGradient><clipPath
       id="clipPath3229"><path
         d="M 0,60 L 100,60 L 100,0 L 0,0 L 0,60 z"
         id="path3231" /></clipPath><radialGradient
       cx="0"
       cy="0"
       r="1"
       fx="0"
       fy="0"
       id="radialGradient3249"
       gradientUnits="userSpaceOnUse"
       gradientTransform="matrix(13.422577,0,0,8.0422516,68.549805,26.847656)"
       spreadMethod="pad"><stop
         id="stop3251"
         style="stop-color:#e1ebc2;stop-opacity:1"
         offset="0" /><stop
         id="stop3253"
         style="stop-color:#b88c57;stop-opacity:1"
         offset="1" /></radialGradient><clipPath
       id="clipPath3261"><path
         d="M 0,60 L 100,60 L 100,0 L 0,0 L 0,60 z"
         id="path3263" /></clipPath><clipPath
       id="clipPath3273"><path
         d="M 57.9756,30.3193 L 82.3516,30.3193 L 82.3516,16.2002 L 57.9756,16.2002 L 57.9756,30.3193 z"
         id="path3275" /></clipPath><radialGradient
       cx="0"
       cy="0"
       r="1"
       fx="0"
       fy="0"
       id="radialGradient3297"
       gradientUnits="userSpaceOnUse"
       gradientTransform="matrix(7.1416016,0,0,6.2752228,68.555664,37.012695)"
       spreadMethod="pad"><stop
         id="stop3299"
         style="stop-color:#ffebc2;stop-opacity:1"
         offset="0" /><stop
         id="stop3301"
         style="stop-color:#b88c57;stop-opacity:1"
         offset="1" /></radialGradient><clipPath
       id="clipPath3309"><path
         d="M 0,60 L 100,60 L 100,0 L 0,0 L 0,60 z"
         id="path3311" /></clipPath><clipPath
       id="clipPath3321"><path
         d="M 62.3555,42.3574 L 78.252,42.3574 L 78.252,28.2881 L 62.3555,28.2881 L 62.3555,42.3574 z"
         id="path3323" /></clipPath><clipPath
       id="clipPath3337"><path
         d="M 59.1719,24.2939 L 62.8604,24.2939 L 62.8604,16.5508 L 59.1719,16.5508 L 59.1719,24.2939 z"
         id="path3339" /></clipPath><linearGradient
       x1="0"
       y1="0"
       x2="1"
       y2="0"
       id="linearGradient3345"
       gradientUnits="userSpaceOnUse"
       gradientTransform="matrix(1.7232971,-0.6948242,0.6948242,1.7232971,59.573242,21.366211)"
       spreadMethod="pad"><stop
         id="stop3347"
         style="stop-color:#000000;stop-opacity:1"
         offset="0" /><stop
         id="stop3349"
         style="stop-color:#000000;stop-opacity:1"
         offset="1" /></linearGradient><clipPath
       id="clipPath3369"><path
         d="M 77.5234,24.9883 L 81.4521,24.9883 L 81.4521,17.2979 L 77.5234,17.2979 L 77.5234,24.9883 z"
         id="path3371" /></clipPath><linearGradient
       x1="0"
       y1="0"
       x2="1"
       y2="0"
       id="linearGradient3377"
       gradientUnits="userSpaceOnUse"
       gradientTransform="matrix(0.9483337,0.7708435,0.7708435,-0.9483337,78.772461,21.206055)"
       spreadMethod="pad"><stop
         id="stop3379"
         style="stop-color:#000000;stop-opacity:1"
         offset="0" /><stop
         id="stop3381"
         style="stop-color:#000000;stop-opacity:1"
         offset="1" /></linearGradient><clipPath
       id="clipPath3437"><path
         d="M 46.6196,52.5786 L 93.7061,52.5786 L 93.7061,11.209 L 46.6196,11.209 L 46.6196,52.5786 z"
         id="path3439" /></clipPath><radialGradient
       cx="41.819855"
       cy="66.038605"
       r="61.810661"
       fx="41.819855"
       fy="66.038605"
       id="radialGradient4227"
       xlink:href="#linearGradient4221"
       gradientUnits="userSpaceOnUse"
       gradientTransform="matrix(1,0,0,0.4349442,0,37.315494)" /><radialGradient
       cx="41.819855"
       cy="66.038605"
       r="61.810661"
       fx="41.819855"
       fy="66.038605"
       id="radialGradient4244"
       xlink:href="#linearGradient4221"
       gradientUnits="userSpaceOnUse"
       gradientTransform="matrix(1,0,0,0.4349442,0,37.315494)" /></defs><g
     transform="matrix(1.25,0,0,-1.25,0,75)"
     id="g2935"><path
       d="M 103.63052,66.038605 A 61.810661,26.884192 0 1 1 -19.990807,66.038605 A 61.810661,26.884192 0 1 1 103.63052,66.038605 z"
       transform="matrix(0.4892193,0,0,-0.8991453,48.658567,84.194478)"
       id="path4242"
       style="opacity:1;fill:url(#radialGradient4244);fill-opacity:1;fill-rule:nonzero;stroke:none;stroke-width:2;stroke-linecap:butt;stroke-linejoin:round;stroke-miterlimit:4;stroke-dasharray:none;stroke-dashoffset:0;stroke-opacity:1" /><path
       d="M 103.63052,66.038605 A 61.810661,26.884192 0 1 1 -19.990807,66.038605 A 61.810661,26.884192 0 1 1 103.63052,66.038605 z"
       transform="matrix(0.4892193,0,0,-0.8991453,10.147536,85.9408)"
       id="path3449"
       style="opacity:1;fill:url(#radialGradient4227);fill-opacity:1;fill-rule:nonzero;stroke:none;stroke-width:2;stroke-linecap:butt;stroke-linejoin:round;stroke-miterlimit:4;stroke-dasharray:none;stroke-dashoffset:0;stroke-opacity:1" /><g
       id="g2937"><g
         clip-path="url(#clipPath2941)"
         id="g2939"><g
           transform="translate(42.8921,49.8276)"
           id="g2945"><path
             d="M 0,0 C -11.576,6.34 -26.811,3.235 -34.029,-6.934 C -36.348,-10.213 -37.542,-13.823 -37.727,-17.428 C -38.794,-25.507 -34.66,-33.787 -26.287,-38.371 C -14.709,-44.708 0.524,-41.603 7.733,-31.44 C 10.061,-28.16 11.254,-24.545 11.439,-20.94 C 12.506,-12.862 8.374,-4.585 0,0"
             id="path2947"
             style="fill:#323232;fill-opacity:1;fill-rule:nonzero;stroke:none" /></g><g
           transform="translate(42.8921,49.8276)"
           id="g2949"><path
             d="M 0,0 C -11.576,6.34 -26.811,3.235 -34.029,-6.934 C -36.348,-10.213 -37.542,-13.823 -37.727,-17.428 C -38.794,-25.507 -34.66,-33.787 -26.287,-38.371 C -14.709,-44.708 0.524,-41.603 7.733,-31.44 C 10.061,-28.16 11.254,-24.545 11.439,-20.94 C 12.506,-12.862 8.374,-4.585 0,0 z"
             id="path2951"
             style="fill:none;stroke:#323232;stroke-width:2.32399988;stroke-linecap:butt;stroke-linejoin:miter;stroke-miterlimit:4;stroke-dasharray:none;stroke-opacity:1" /></g></g></g><g
       id="g2953"><g
         id="g2955"><g
           id="g2961"><g
             id="g2963"><path
               d="M 9.027,44.597 C 1.808,34.428 5.35,21.046 16.925,14.712 L 16.925,14.712 C 28.493,8.375 43.727,11.48 50.945,21.643 L 50.945,21.643 C 58.154,31.818 54.621,45.199 43.047,51.535 L 43.047,51.535 C 38.982,53.762 34.467,54.824 30.005,54.824 L 30.005,54.824 C 21.762,54.823 13.704,51.197 9.027,44.597"
               id="path2971"
               style="fill:url(#radialGradient2965);stroke:none" /></g></g></g></g><g
       id="g2973"><g
         clip-path="url(#clipPath2977)"
         id="g2975"><g
           transform="translate(50.9448,21.6436)"
           id="g2981"><path
             d="M 0,0 C -7.218,-10.164 -22.452,-13.269 -34.02,-6.932 C -45.595,-0.598 -49.137,12.784 -41.917,22.954 C -34.708,33.127 -19.473,36.232 -7.898,29.891 C 3.676,23.555 7.209,10.174 0,0 z"
             id="path2983"
             style="fill:none;stroke:#787878;stroke-width:2.32399988;stroke-linecap:butt;stroke-linejoin:miter;stroke-miterlimit:4;stroke-dasharray:none;stroke-opacity:1" /></g></g></g><g
       id="g2985"><g
         id="g2987"><g
           id="g2993"><g
             id="g2995"><path
               d="M 11.986,28.063 C 11.501,24.802 13.413,23.127 16.072,21.672 L 16.072,21.672 L 24.951,16.813 C 27.464,15.44 30.531,14.887 33.071,16.691 L 33.071,16.691 C 35.497,18.407 37.74,22.978 34.517,29.431 L 34.517,29.431 L 24.019,35.185 C 16.188,35.141 12.461,31.255 11.986,28.063"
               id="path3003"
               style="fill:url(#radialGradient2997);stroke:none" /></g></g></g></g><g
       id="g3005"><g
         clip-path="url(#clipPath3009)"
         id="g3007"><g
           transform="translate(16.0718,21.6719)"
           id="g3013"><path
             d="M 0,0 L 8.879,-4.859 C 11.393,-6.231 14.459,-6.785 17,-4.98 C 19.425,-3.265 21.667,1.306 18.445,7.759 L 7.947,13.513 C 0.116,13.47 -3.61,9.583 -4.086,6.391 C -4.571,3.13 -2.659,1.455 0,0 z"
             id="path3015"
             style="fill:none;stroke:#787878;stroke-width:0.74800003;stroke-linecap:round;stroke-linejoin:round;stroke-miterlimit:4;stroke-dasharray:none;stroke-opacity:1" /></g><g
           id="g3017"><g
             id="g3019" /><g
             id="g3025"><g
               clip-path="url(#clipPath3021)"
               id="g3027"
               style="opacity:0.215195"><g
                 transform="translate(16.7217,22.4043)"
                 id="g3029"><path
                   d="M 0,0 L 8.627,-4.723 C 10.839,-5.931 13.528,-6.416 15.768,-4.83 C 17.893,-3.324 19.649,0.806 16.815,6.474 L 7.181,11.752 C 0.301,11.713 -3.183,8.424 -3.6,5.615 C -4.018,2.751 -2.338,1.281 0,0 z"
                   id="path3031"
                   style="fill:none;stroke:#ffffff;stroke-width:0.74800003;stroke-linecap:round;stroke-linejoin:round;stroke-miterlimit:4;stroke-dasharray:none;stroke-opacity:1" /></g></g></g></g></g></g><g
       id="g3033"><g
         id="g3035"><g
           id="g3041"><g
             id="g3043"><path
               d="M 24.912,39.919 L 24.912,39.916 C 22.417,36.398 23.641,31.769 27.649,29.58 L 27.649,29.58 C 31.646,27.393 36.914,28.47 39.408,31.987 L 39.408,31.987 L 39.408,31.992 C 41.902,35.51 40.679,40.134 36.671,42.326 L 36.671,42.326 C 35.27,43.092 33.712,43.457 32.172,43.457 L 32.172,43.457 C 29.321,43.457 26.531,42.204 24.912,39.919"
               id="path3051"
               style="fill:url(#radialGradient3045);stroke:none" /></g></g></g></g><g
       id="g3053"><g
         clip-path="url(#clipPath3057)"
         id="g3055"><g
           transform="translate(39.4082,31.9873)"
           id="g3061"><path
             d="M 0,0 C -2.494,-3.518 -7.763,-4.594 -11.759,-2.407 C -15.767,-0.218 -16.991,4.41 -14.496,7.928 L -14.496,7.933 C -12.002,11.451 -6.735,12.523 -2.737,10.339 C 1.271,8.146 2.494,3.522 0,0.005 L 0,0 z"
             id="path3063"
             style="fill:none;stroke:#787878;stroke-width:0.74800003;stroke-linecap:round;stroke-linejoin:round;stroke-miterlimit:4;stroke-dasharray:none;stroke-opacity:1" /></g><g
           id="g3065"><g
             id="g3067" /><g
             id="g3073"><g
               clip-path="url(#clipPath3069)"
               id="g3075"
               style="opacity:0.12658697"><g
                 transform="translate(38.5151,32.4722)"
                 id="g3077"><path
                   d="M 0,0 C -2.183,-3.085 -6.802,-4.025 -10.313,-2.11 C -13.826,-0.185 -14.903,3.873 -12.71,6.958 L -12.71,6.963 C -10.517,10.048 -5.91,10.99 -2.396,9.068 C 1.116,7.147 2.193,3.091 0.01,0.005 C 0.01,0.005 0,0.005 0,0 z"
                   id="path3079"
                   style="fill:none;stroke:#ffffff;stroke-width:0.85299999;stroke-linecap:round;stroke-linejoin:round;stroke-miterlimit:4;stroke-dasharray:none;stroke-opacity:1" /></g></g></g></g><g
           id="g3081"><g
             id="g3083" /><g
             id="g3099"><g
               clip-path="url(#clipPath3085)"
               id="g3101"
               style="opacity:0.227844"><g
                 id="g3103"><g
                   id="g3105"><g
                     id="g3107"><g
                       id="g3109"><path
                         d="M 13.005,24.403 C 12.249,25.373 12.461,26.599 12.461,26.599 C 15.285,29.207 19.254,30.076 19.254,30.076 C 19.254,30.076 13.995,26.403 13.005,24.403"
                         id="path3111"
                         style="fill:url(#linearGradient3093);stroke:none" /></g></g></g></g></g></g></g><g
           id="g3113"><g
             id="g3115" /><g
             id="g3131"><g
               clip-path="url(#clipPath3117)"
               id="g3133"
               style="opacity:0.227844"><g
                 id="g3135"><g
                   id="g3137"><g
                     id="g3139"><g
                       id="g3141"><path
                         d="M 29.269,16.381 C 30.599,16.24 31.82,17.025 31.82,17.025 C 33.129,20.434 32.063,23.874 32.063,23.874 C 32.063,23.874 30.822,18.082 29.269,16.381"
                         id="path3143"
                         style="fill:url(#linearGradient3125);stroke:none" /></g></g></g></g></g></g></g><g
           transform="translate(29.9346,51.1299)"
           id="g3145"><path
             d="M 0,0 C -0.678,-1.404 -0.952,-2.12 -1.38,-3.563 C -1.781,-3.591 -1.982,-3.61 -2.384,-3.66 C -2.814,-3.012 -3.049,-2.693 -3.558,-2.072 C -3.773,-2.815 -3.864,-3.189 -4.006,-3.934 C -4.406,-4.02 -4.605,-4.067 -5.005,-4.176 C -6.022,-2.978 -6.599,-2.406 -7.882,-1.347 C -7.249,-1.121 -6.931,-1.021 -6.293,-0.844 C -5.715,-1.462 -5.443,-1.778 -4.931,-2.426 C -4.791,-1.622 -4.7,-1.22 -4.479,-0.417 C -4.046,-0.333 -3.829,-0.297 -3.396,-0.234 C -2.858,-0.91 -2.61,-1.257 -2.156,-1.96 C -1.958,-1.192 -1.844,-0.809 -1.583,-0.047 C -0.947,-0.006 -0.631,0.002 0,0"
             id="path3147"
             style="fill:#787878;fill-opacity:1;fill-rule:nonzero;stroke:none" /></g><g
           transform="translate(31.4771,47.5396)"
           id="g3149"><path
             d="M 0,0 C -0.449,0.04 -0.676,0.052 -1.13,0.064 C -1.092,1.088 -1.075,1.599 -1.041,2.621 C -0.507,2.606 -0.241,2.59 0.287,2.543 C 0.173,1.527 0.117,1.019 0,0 M 0.329,2.917 C -0.21,2.965 -0.482,2.979 -1.028,2.995 C -1.02,3.242 -1.016,3.366 -1.007,3.613 C -0.443,3.597 -0.161,3.581 0.397,3.532 C 0.37,3.286 0.356,3.163 0.329,2.917"
             id="path3151"
             style="fill:#787878;fill-opacity:1;fill-rule:nonzero;stroke:none" /></g><g
           transform="translate(35.6797,46.6738)"
           id="g3153"><path
             d="M 0,0 C -0.516,0.17 -0.777,0.247 -1.309,0.38 C -1.48,0.829 -1.575,1.052 -1.79,1.497 C -1.898,1.448 -1.953,1.424 -2.06,1.374 C -2.139,1.061 -2.178,0.904 -2.258,0.591 C -2.694,0.677 -2.915,0.712 -3.358,0.772 C -3.115,2.166 -2.999,2.861 -2.762,4.252 C -2.21,4.178 -1.937,4.133 -1.395,4.027 C -1.569,3.329 -1.657,2.979 -1.832,2.281 C -1.31,2.56 -1.037,2.69 -0.475,2.935 C 0.133,2.783 0.433,2.695 1.023,2.502 C 0.255,2.284 -0.115,2.159 -0.825,1.878 C -0.431,1.133 -0.266,0.754 0,0"
             id="path3155"
             style="fill:#787878;fill-opacity:1;fill-rule:nonzero;stroke:none" /></g><g
           transform="translate(37.085,46.146)"
           id="g3157"><path
             d="M 0,0 C -0.399,0.169 -0.604,0.248 -1.016,0.394 C -0.579,1.343 -0.36,1.818 0.073,2.765 C 0.557,2.594 0.793,2.5 1.262,2.301 C 0.758,1.381 0.507,0.922 0,0 M 1.447,2.64 C 0.968,2.843 0.726,2.938 0.232,3.113 C 0.337,3.342 0.389,3.456 0.494,3.685 C 1.005,3.503 1.256,3.406 1.752,3.196 C 1.63,2.973 1.569,2.862 1.447,2.64"
             id="path3159"
             style="fill:#787878;fill-opacity:1;fill-rule:nonzero;stroke:none" /></g><g
           transform="translate(40.4248,45.9482)"
           id="g3161"><path
             d="M 0,0 C 0.146,0.18 0.225,0.318 0.237,0.416 C 0.252,0.543 0.17,0.662 -0.012,0.77 C -0.194,0.877 -0.343,0.904 -0.457,0.851 C -0.571,0.797 -0.695,0.676 -0.83,0.49 C -0.964,0.304 -1.035,0.155 -1.045,0.044 C -1.056,-0.067 -0.978,-0.172 -0.81,-0.271 C -0.641,-0.371 -0.496,-0.392 -0.367,-0.335 C -0.269,-0.292 -0.146,-0.18 0,0 M 0.961,-0.646 C 0.914,-0.696 0.878,-0.734 0.854,-0.76 C 0.683,-0.943 0.54,-1.071 0.43,-1.145 C 0.257,-1.259 0.076,-1.318 -0.113,-1.321 C -0.403,-1.327 -0.69,-1.236 -0.987,-1.053 C -1.263,-0.882 -1.44,-0.691 -1.523,-0.47 C -1.78,-0.826 -1.908,-1.004 -2.166,-1.36 C -2.518,-1.164 -2.699,-1.07 -3.065,-0.895 C -2.295,0.343 -1.911,0.959 -1.146,2.194 C -0.701,1.981 -0.481,1.868 -0.053,1.63 L -0.185,1.447 C -0.023,1.455 0.133,1.439 0.287,1.399 C 0.441,1.359 0.61,1.283 0.788,1.173 C 1.146,0.952 1.368,0.702 1.458,0.435 C 1.532,0.212 1.472,-0.027 1.28,-0.281 C 1.224,-0.355 1.118,-0.478 0.961,-0.646"
             id="path3163"
             style="fill:#787878;fill-opacity:1;fill-rule:nonzero;stroke:none" /></g><g
           transform="translate(43.7583,43.6782)"
           id="g3165"><path
             d="M 0,0 C 0.042,0.033 0.073,0.06 0.088,0.081 C 0.104,0.102 0.117,0.138 0.131,0.182 C 0.153,0.254 0.157,0.334 0.131,0.414 C 0.104,0.494 0.041,0.58 -0.062,0.675 C -0.161,0.768 -0.258,0.828 -0.351,0.858 C -0.445,0.888 -0.531,0.896 -0.61,0.879 C -0.69,0.863 -0.763,0.825 -0.827,0.77 C -0.486,0.471 -0.319,0.318 0,0 M 0.294,-1.158 C -0.283,-0.503 -0.596,-0.191 -1.259,0.389 C -1.352,0.307 -1.386,0.199 -1.366,0.066 C -1.347,-0.065 -1.267,-0.196 -1.125,-0.331 C -0.99,-0.458 -0.876,-0.545 -0.778,-0.593 C -0.681,-0.64 -0.559,-0.675 -0.409,-0.702 C -0.394,-1.017 -0.392,-1.173 -0.396,-1.483 C -0.654,-1.43 -0.878,-1.355 -1.074,-1.256 C -1.271,-1.157 -1.473,-1.002 -1.694,-0.793 C -2.036,-0.47 -2.25,-0.176 -2.329,0.114 C -2.434,0.503 -2.307,0.895 -1.917,1.286 C -1.598,1.606 -1.221,1.763 -0.781,1.732 C -0.339,1.702 0.095,1.501 0.492,1.132 C 0.906,0.745 1.115,0.339 1.118,-0.05 C 1.121,-0.421 0.948,-0.716 0.621,-0.938 C 0.49,-1.025 0.425,-1.07 0.294,-1.158"
             id="path3167"
             style="fill:#787878;fill-opacity:1;fill-rule:nonzero;stroke:none" /></g><g
           transform="translate(45.8501,40.5825)"
           id="g3169"><path
             d="M 0,0 C 0.221,0.105 0.359,0.204 0.417,0.288 C 0.493,0.396 0.478,0.54 0.365,0.71 C 0.251,0.881 0.126,0.962 -0.001,0.958 C -0.131,0.955 -0.303,0.895 -0.516,0.778 C -0.73,0.662 -0.868,0.553 -0.932,0.457 C -0.995,0.361 -0.975,0.235 -0.871,0.077 C -0.766,-0.081 -0.644,-0.157 -0.5,-0.157 C -0.39,-0.156 -0.221,-0.106 0,0 M -0.821,-1.532 C -1.005,-1.177 -1.104,-1.002 -1.314,-0.663 C -1.227,-0.621 -1.184,-0.6 -1.097,-0.558 C -1.236,-0.506 -1.357,-0.441 -1.464,-0.36 C -1.572,-0.278 -1.674,-0.167 -1.771,-0.026 C -1.967,0.255 -2.058,0.519 -2.033,0.772 C -2.018,0.929 -1.938,1.088 -1.798,1.235 C -1.7,1.338 -1.544,1.457 -1.336,1.587 C -1.275,1.626 -1.231,1.654 -1.201,1.673 C -0.933,1.842 -0.738,1.95 -0.619,1.997 C -0.378,2.092 -0.151,2.108 0.063,2.038 C 0.364,1.94 0.637,1.727 0.867,1.397 C 1.08,1.092 1.167,0.804 1.136,0.544 C 1.557,0.746 1.767,0.848 2.188,1.049 C 2.458,0.615 2.584,0.393 2.821,-0.06 C 1.364,-0.647 0.637,-0.943 -0.821,-1.532"
             id="path3171"
             style="fill:#787878;fill-opacity:1;fill-rule:nonzero;stroke:none" /></g><g
           transform="translate(45.7578,37.3887)"
           id="g3173"><path
             d="M 0,0 C -0.141,0.392 -0.218,0.583 -0.388,0.96 C 0.694,1.339 1.235,1.528 2.317,1.906 C 2.517,1.463 2.608,1.237 2.773,0.777 C 1.665,0.467 1.109,0.312 0,0 M 3.181,0.892 C 3.012,1.362 2.917,1.592 2.714,2.044 C 2.976,2.136 3.107,2.181 3.369,2.272 C 3.58,1.803 3.676,1.565 3.851,1.079 C 3.583,1.004 3.449,0.967 3.181,0.892"
             id="path3175"
             style="fill:#787878;fill-opacity:1;fill-rule:nonzero;stroke:none" /></g><g
           transform="translate(47.4932,35.1704)"
           id="g3177"><path
             d="M 0,0 C 0.031,0.004 0.045,0.007 0.077,0.011 C 0.04,0.239 0.02,0.353 -0.026,0.578 C -0.048,0.687 -0.088,0.77 -0.146,0.825 C -0.205,0.879 -0.27,0.899 -0.339,0.886 C -0.409,0.874 -0.46,0.833 -0.494,0.763 C -0.528,0.692 -0.533,0.601 -0.51,0.487 C -0.486,0.367 -0.464,0.284 -0.441,0.232 C -0.418,0.181 -0.375,0.124 -0.312,0.063 C -0.249,0.002 -0.145,-0.019 0,0 M -0.996,-1.212 C -1.03,-0.79 -1.055,-0.582 -1.121,-0.17 C -1.022,-0.158 -0.974,-0.15 -0.875,-0.138 C -0.99,-0.036 -1.081,0.066 -1.144,0.17 C -1.207,0.275 -1.254,0.412 -1.293,0.589 C -1.368,0.927 -1.352,1.21 -1.235,1.449 C -1.182,1.559 -1.104,1.654 -1,1.735 C -0.897,1.816 -0.776,1.873 -0.638,1.907 C -0.399,1.965 -0.175,1.92 0.033,1.762 C 0.271,1.583 0.447,1.28 0.539,0.856 C 0.605,0.552 0.633,0.398 0.684,0.087 C 0.715,0.091 0.73,0.093 0.762,0.097 C 0.895,0.114 0.985,0.168 1.028,0.266 C 1.07,0.364 1.072,0.52 1.029,0.731 C 1,0.879 0.959,0.992 0.914,1.067 C 0.868,1.143 0.794,1.223 0.693,1.307 C 0.847,1.636 0.919,1.804 1.055,2.145 C 1.256,1.99 1.416,1.809 1.529,1.605 C 1.643,1.403 1.738,1.132 1.806,0.792 C 2.041,-0.393 1.692,-1.044 0.963,-1.089 C 0.179,-1.138 -0.212,-1.163 -0.996,-1.212"
             id="path3179"
             style="fill:#787878;fill-opacity:1;fill-rule:nonzero;stroke:none" /></g><g
           id="g3181"><g
             id="g3183" /><g
             id="g3189"><g
               clip-path="url(#clipPath3185)"
               id="g3191"
               style="opacity:0.30000299"><g
                 transform="translate(30.0166,51.5444)"
                 id="g3193"><path
                   d="M 0,0 L 0,0 C -7.317,0 -13.983,-3.24 -17.836,-8.674 C -23.948,-17.296 -20.94,-28.683 -11.121,-34.056 C -7.802,-35.881 -3.979,-36.842 -0.068,-36.842 C 7.247,-36.842 13.914,-33.603 17.765,-28.169 C 20.724,-24 21.656,-19.063 20.385,-14.258 C 19.124,-9.461 15.805,-5.384 11.061,-2.784 C 7.732,-0.961 3.909,0 0,0 M 0,2.179 C 4.239,2.179 8.518,1.174 12.37,-0.937 C 23.343,-6.947 26.711,-19.679 19.871,-29.325 C 15.437,-35.581 7.761,-39.026 -0.068,-39.026 C -4.299,-39.026 -8.588,-38.017 -12.441,-35.911 C -23.415,-29.896 -26.782,-17.165 -19.942,-7.524 C -15.498,-1.261 -7.832,2.179 0,2.179"
                   id="path3195"
                   style="fill:#ffffff;fill-opacity:1;fill-rule:nonzero;stroke:none" /></g></g></g></g><g
           transform="translate(83.3525,48.6641)"
           id="g3197"><path
             d="M 0,0 C -11.622,6.36 -26.917,3.245 -34.151,-6.962 C -36.48,-10.254 -37.684,-13.878 -37.868,-17.493 C -38.946,-25.607 -34.792,-33.918 -26.383,-38.522 C -14.768,-44.878 0.524,-41.764 7.763,-31.56 C 10.103,-28.266 11.296,-24.641 11.48,-21.021 C 12.557,-12.908 8.404,-4.604 0,0"
             id="path3199"
             style="fill:#323232;fill-opacity:1;fill-rule:nonzero;stroke:none" /></g><g
           transform="translate(83.3525,48.6641)"
           id="g3201"><path
             d="M 0,0 C -11.622,6.36 -26.917,3.245 -34.151,-6.962 C -36.48,-10.254 -37.684,-13.878 -37.868,-17.493 C -38.946,-25.607 -34.792,-33.918 -26.383,-38.522 C -14.768,-44.878 0.524,-41.764 7.763,-31.56 C 10.103,-28.266 11.296,-24.641 11.48,-21.021 C 12.557,-12.908 8.404,-4.604 0,0 z"
             id="path3203"
             style="fill:none;stroke:#323232;stroke-width:2.33299994;stroke-linecap:butt;stroke-linejoin:miter;stroke-miterlimit:4;stroke-dasharray:none;stroke-opacity:1" /></g></g></g><g
       id="g3205"><g
         id="g3207"><g
           id="g3213"><g
             id="g3215"><path
               d="M 45.367,31.899 C 45.367,19.87 56.465,10.112 70.157,10.112 L 70.157,10.112 C 83.847,10.112 94.949,19.87 94.949,31.899 L 94.949,31.899 C 94.949,43.924 83.847,53.676 70.157,53.676 L 70.157,53.676 C 56.465,53.676 45.367,43.924 45.367,31.899"
               id="path3223"
               style="fill:url(#radialGradient3217);stroke:none" /></g></g></g></g><g
       id="g3225"><g
         clip-path="url(#clipPath3229)"
         id="g3227"><g
           transform="translate(94.9492,31.8984)"
           id="g3233"><path
             d="M 0,0 C 0,-12.028 -11.103,-21.786 -24.792,-21.786 C -38.484,-21.786 -49.582,-12.028 -49.582,0 C -49.582,12.026 -38.484,21.777 -24.792,21.777 C -11.103,21.777 0,12.026 0,0 z"
             id="path3235"
             style="fill:none;stroke:#6f4708;stroke-width:2.33299994;stroke-linecap:butt;stroke-linejoin:miter;stroke-miterlimit:4;stroke-dasharray:none;stroke-opacity:1" /></g></g></g><g
       id="g3237"><g
         id="g3239"><g
           id="g3245"><g
             id="g3247"><path
               d="M 63.83,30.87 C 57.184,27.183 56.358,22.13 57.882,19.19 L 57.882,19.19 C 59.444,16.182 62.083,15.652 65.228,15.652 L 65.228,15.652 L 75.728,15.652 C 78.696,15.652 81.647,16.609 82.722,19.341 L 82.722,19.341 C 83.75,21.931 82.895,26.871 76.251,30.87 L 76.251,30.87 L 63.83,30.87 z"
               id="path3255"
               style="fill:url(#radialGradient3249);stroke:none" /></g></g></g></g><g
       id="g3257"><g
         clip-path="url(#clipPath3261)"
         id="g3259"><g
           transform="translate(65.2275,15.6523)"
           id="g3265"><path
             d="M 0,0 L 10.5,0 C 13.469,0 16.42,0.957 17.494,3.688 C 18.522,6.279 17.668,11.219 11.023,15.218 L -1.397,15.218 C -8.043,11.53 -8.869,6.478 -7.346,3.537 C -5.783,0.529 -3.145,0 0,0 z"
             id="path3267"
             style="fill:none;stroke:#6f4708;stroke-width:0.75099999;stroke-linecap:round;stroke-linejoin:round;stroke-miterlimit:4;stroke-dasharray:none;stroke-opacity:1" /></g><g
           id="g3269"><g
             id="g3271" /><g
             id="g3277"><g
               clip-path="url(#clipPath3273)"
               id="g3279"
               style="opacity:0.215195"><g
                 transform="translate(65.335,16.5752)"
                 id="g3281"><path
                   d="M 0,0 L 10.208,0 C 12.829,0 15.409,0.844 16.352,3.242 C 17.251,5.521 16.264,9.854 10.422,13.369 L -0.98,13.369 C -6.822,10.125 -7.792,5.695 -6.453,3.104 C -5.085,0.47 -2.767,0 0,0 z"
                   id="path3283"
                   style="fill:none;stroke:#ffffff;stroke-width:0.75099999;stroke-linecap:round;stroke-linejoin:round;stroke-miterlimit:4;stroke-dasharray:none;stroke-opacity:1" /></g></g></g></g></g></g><g
       id="g3285"><g
         id="g3287"><g
           id="g3293"><g
             id="g3295"><path
               d="M 61.736,35.324 L 61.736,35.32 C 61.736,31.157 65.579,27.789 70.313,27.789 L 70.313,27.789 C 75.038,27.789 78.881,31.166 78.872,35.324 L 78.872,35.324 L 78.872,35.334 C 78.872,39.489 75.029,42.856 70.303,42.856 L 70.303,42.856 C 65.568,42.852 61.736,39.48 61.736,35.324"
               id="path3303"
               style="fill:url(#radialGradient3297);stroke:none" /></g></g></g></g><g
       id="g3305"><g
         clip-path="url(#clipPath3309)"
         id="g3307"><g
           transform="translate(78.8721,35.3242)"
           id="g3313"><path
             d="M 0,0 C 0.009,-4.158 -3.834,-7.535 -8.559,-7.535 C -13.294,-7.535 -17.137,-4.167 -17.137,-0.005 L -17.137,0 C -17.137,4.156 -13.305,7.528 -8.569,7.532 C -3.843,7.532 0,4.166 0,0.01 L 0,0 z"
             id="path3315"
             style="fill:none;stroke:#6f4708;stroke-width:0.75099999;stroke-linecap:round;stroke-linejoin:round;stroke-miterlimit:4;stroke-dasharray:none;stroke-opacity:1" /></g><g
           id="g3317"><g
             id="g3319" /><g
             id="g3325"><g
               clip-path="url(#clipPath3321)"
               id="g3327"
               style="opacity:0.12658697"><g
                 transform="translate(77.8242,35.3242)"
                 id="g3329"><path
                   d="M 0,0 C 0,-3.649 -3.368,-6.604 -7.521,-6.608 C -11.665,-6.608 -15.032,-3.653 -15.041,-0.005 L -15.041,0 C -15.041,3.647 -11.675,6.605 -7.521,6.605 C -3.368,6.605 0,3.656 0,0.01 L 0,0 z"
                   id="path3331"
                   style="fill:none;stroke:#ffffff;stroke-width:0.85600001;stroke-linecap:round;stroke-linejoin:round;stroke-miterlimit:4;stroke-dasharray:none;stroke-opacity:1" /></g></g></g></g><g
           id="g3333"><g
             id="g3335" /><g
             id="g3351"><g
               clip-path="url(#clipPath3337)"
               id="g3353"
               style="opacity:0.227844"><g
                 id="g3355"><g
                   id="g3357"><g
                     id="g3359"><g
                       id="g3361"><path
                         d="M 60.969,16.551 C 59.734,17.025 59.172,18.166 59.172,18.166 C 60.007,21.703 62.86,24.294 62.86,24.294 C 62.86,24.294 60.6,18.72 60.969,16.551"
                         id="path3363"
                         style="fill:url(#linearGradient3345);stroke:none" /></g></g></g></g></g></g></g><g
           id="g3365"><g
             id="g3367" /><g
             id="g3383"><g
               clip-path="url(#clipPath3369)"
               id="g3385"
               style="opacity:0.227844"><g
                 id="g3387"><g
                   id="g3389"><g
                     id="g3391"><g
                       id="g3393"><path
                         d="M 79.668,17.298 C 80.89,17.803 81.452,19.04 81.452,19.04 C 80.512,22.552 77.523,24.988 77.523,24.988 C 77.523,24.988 79.969,19.473 79.668,17.298"
                         id="path3395"
                         style="fill:url(#linearGradient3377);stroke:none" /></g></g></g></g></g></g></g><g
           transform="translate(59.2383,47.2109)"
           id="g3397"><path
             d="M 0,0 C 0.269,-1.511 0.468,-2.253 0.978,-3.682 C 0.652,-3.893 0.493,-4.003 0.181,-4.233 C -0.578,-3.882 -0.971,-3.721 -1.78,-3.429 C -1.515,-4.163 -1.364,-4.521 -1.034,-5.221 C -1.323,-5.48 -1.466,-5.617 -1.74,-5.895 C -3.331,-5.354 -4.177,-5.133 -5.899,-4.829 C -5.497,-4.341 -5.288,-4.108 -4.853,-3.66 C -3.99,-3.917 -3.565,-4.059 -2.737,-4.372 C -3.104,-3.621 -3.27,-3.236 -3.563,-2.448 C -3.245,-2.175 -3.083,-2.042 -2.752,-1.787 C -1.889,-2.111 -1.469,-2.291 -0.657,-2.678 C -0.953,-1.931 -1.085,-1.551 -1.32,-0.781 C -0.803,-0.449 -0.539,-0.292 0,0"
             id="path3399"
             style="fill:#6f4708;fill-opacity:1;fill-rule:nonzero;stroke:none" /></g><g
           transform="translate(62.7227,44.8711)"
           id="g3401"><path
             d="M 0,0 C -0.406,-0.176 -0.607,-0.272 -1.002,-0.474 C -1.59,0.416 -1.882,0.861 -2.47,1.747 C -2.006,1.984 -1.771,2.094 -1.294,2.3 C -0.776,1.382 -0.518,0.922 0,0 M -1.484,2.638 C -1.973,2.426 -2.212,2.314 -2.686,2.072 C -2.827,2.286 -2.9,2.393 -3.042,2.606 C -2.552,2.857 -2.3,2.974 -1.795,3.192 C -1.67,2.971 -1.609,2.859 -1.484,2.638"
             id="path3403"
             style="fill:#6f4708;fill-opacity:1;fill-rule:nonzero;stroke:none" /></g><g
           transform="translate(66.8252,46.0947)"
           id="g3405"><path
             d="M 0,0 C -0.542,-0.096 -0.81,-0.152 -1.343,-0.287 C -1.761,0.015 -1.977,0.161 -2.429,0.44 C -2.492,0.348 -2.526,0.301 -2.588,0.208 C -2.467,-0.095 -2.403,-0.247 -2.281,-0.55 C -2.704,-0.681 -2.913,-0.753 -3.327,-0.91 C -3.965,0.39 -4.283,1.04 -4.922,2.333 C -4.407,2.527 -4.146,2.615 -3.62,2.777 C -3.347,2.103 -3.21,1.765 -2.938,1.088 C -2.661,1.569 -2.51,1.808 -2.179,2.28 C -1.569,2.434 -1.261,2.5 -0.642,2.611 C -1.163,2.067 -1.401,1.786 -1.836,1.216 C -1.051,0.765 -0.683,0.519 0,0"
             id="path3407"
             style="fill:#6f4708;fill-opacity:1;fill-rule:nonzero;stroke:none" /></g><g
           transform="translate(68.3408,46.3018)"
           id="g3409"><path
             d="M 0,0 C -0.442,-0.042 -0.661,-0.069 -1.101,-0.137 C -1.304,0.876 -1.404,1.381 -1.608,2.39 C -1.094,2.469 -0.835,2.5 -0.316,2.55 C -0.188,1.532 -0.127,1.022 0,0 M -0.362,2.924 C -0.893,2.874 -1.157,2.841 -1.684,2.76 C -1.733,3.003 -1.758,3.125 -1.808,3.368 C -1.264,3.452 -0.99,3.486 -0.441,3.538 C -0.41,3.292 -0.394,3.169 -0.362,2.924"
             id="path3411"
             style="fill:#6f4708;fill-opacity:1;fill-rule:nonzero;stroke:none" /></g><g
           transform="translate(71.3066,47.6924)"
           id="g3413"><path
             d="M 0,0 C 0.016,0.221 0.001,0.375 -0.049,0.463 C -0.113,0.578 -0.257,0.644 -0.477,0.65 C -0.697,0.657 -0.84,0.608 -0.904,0.509 C -0.969,0.411 -1.002,0.251 -1.004,0.03 C -1.006,-0.191 -0.979,-0.352 -0.92,-0.452 C -0.861,-0.552 -0.729,-0.603 -0.525,-0.609 C -0.322,-0.616 -0.187,-0.567 -0.111,-0.458 C -0.053,-0.375 -0.016,-0.221 0,0 M 1.209,-0.102 C 1.199,-0.167 1.19,-0.216 1.186,-0.249 C 1.15,-0.486 1.108,-0.663 1.059,-0.776 C 0.981,-0.954 0.859,-1.088 0.701,-1.18 C 0.458,-1.32 0.158,-1.377 -0.205,-1.359 C -0.543,-1.343 -0.811,-1.262 -1.016,-1.112 C -1.02,-1.536 -1.02,-1.747 -1.023,-2.171 C -1.441,-2.168 -1.65,-2.173 -2.068,-2.194 C -2.164,-0.778 -2.21,-0.073 -2.306,1.334 C -1.798,1.36 -1.543,1.366 -1.034,1.364 L -1.034,1.146 C -0.902,1.227 -0.758,1.288 -0.602,1.325 C -0.445,1.363 -0.262,1.376 -0.043,1.365 C 0.396,1.344 0.741,1.235 0.979,1.05 C 1.177,0.895 1.268,0.663 1.26,0.356 C 1.257,0.268 1.241,0.115 1.209,-0.102"
             id="path3415"
             style="fill:#6f4708;fill-opacity:1;fill-rule:nonzero;stroke:none" /></g><g
           transform="translate(75.5195,47.3125)"
           id="g3417"><path
             d="M 0,0 C 0.017,0.047 0.024,0.085 0.025,0.11 C 0.026,0.135 0.018,0.171 0.003,0.217 C -0.021,0.288 -0.063,0.356 -0.135,0.412 C -0.205,0.467 -0.315,0.513 -0.459,0.546 C -0.601,0.579 -0.72,0.586 -0.817,0.568 C -0.915,0.55 -0.993,0.514 -1.052,0.463 C -1.11,0.413 -1.147,0.349 -1.168,0.271 C -0.697,0.177 -0.465,0.122 0,0 M 0.949,-0.848 C 0.062,-0.558 -0.393,-0.44 -1.309,-0.256 C -1.339,-0.369 -1.304,-0.476 -1.207,-0.58 C -1.11,-0.684 -0.961,-0.757 -0.76,-0.805 C -0.567,-0.851 -0.416,-0.872 -0.304,-0.867 C -0.193,-0.862 -0.066,-0.836 0.079,-0.789 C 0.281,-1.05 0.376,-1.183 0.559,-1.449 C 0.307,-1.524 0.069,-1.564 -0.158,-1.571 C -0.386,-1.58 -0.652,-1.543 -0.967,-1.468 C -1.452,-1.353 -1.812,-1.2 -2.054,-0.989 C -2.379,-0.707 -2.507,-0.313 -2.411,0.203 C -2.333,0.625 -2.105,0.931 -1.711,1.11 C -1.317,1.289 -0.828,1.324 -0.266,1.193 C 0.321,1.057 0.747,0.81 0.985,0.479 C 1.214,0.164 1.241,-0.169 1.096,-0.509 C 1.038,-0.645 1.007,-0.712 0.949,-0.848"
             id="path3419"
             style="fill:#6f4708;fill-opacity:1;fill-rule:nonzero;stroke:none" /></g><g
           transform="translate(79.1719,45.6499)"
           id="g3421"><path
             d="M 0,0 C 0.124,0.193 0.186,0.339 0.184,0.438 C 0.182,0.567 0.083,0.681 -0.115,0.773 C -0.315,0.866 -0.473,0.879 -0.581,0.815 C -0.689,0.752 -0.795,0.621 -0.907,0.422 C -1.02,0.224 -1.074,0.068 -1.07,-0.045 C -1.066,-0.157 -0.974,-0.255 -0.789,-0.341 C -0.605,-0.426 -0.453,-0.436 -0.33,-0.367 C -0.234,-0.315 -0.124,-0.193 0,0 M 0.228,-1.688 C -0.145,-1.473 -0.336,-1.371 -0.721,-1.179 C -0.671,-1.103 -0.646,-1.064 -0.596,-0.988 C -0.746,-1.009 -0.89,-1.01 -1.03,-0.991 C -1.171,-0.971 -1.325,-0.924 -1.495,-0.849 C -1.832,-0.701 -2.067,-0.518 -2.199,-0.291 C -2.28,-0.15 -2.308,0.022 -2.276,0.213 C -2.255,0.347 -2.194,0.521 -2.097,0.729 C -2.068,0.79 -2.048,0.836 -2.033,0.867 C -1.906,1.136 -1.806,1.319 -1.732,1.414 C -1.585,1.607 -1.398,1.727 -1.175,1.767 C -0.861,1.824 -0.499,1.767 -0.104,1.593 C 0.262,1.433 0.511,1.228 0.639,0.993 C 0.875,1.36 0.994,1.545 1.23,1.912 C 1.723,1.667 1.968,1.538 2.443,1.261 C 1.562,0.084 1.115,-0.506 0.228,-1.688"
             id="path3423"
             style="fill:#6f4708;fill-opacity:1;fill-rule:nonzero;stroke:none" /></g><g
           transform="translate(81.0234,42.8843)"
           id="g3425"><path
             d="M 0,0 C -0.356,0.268 -0.54,0.395 -0.912,0.637 C -0.218,1.465 0.131,1.879 0.823,2.705 C 1.261,2.42 1.475,2.271 1.893,1.957 C 1.137,1.175 0.757,0.783 0,0 M 2.17,2.243 C 1.742,2.564 1.525,2.716 1.079,3.007 C 1.246,3.206 1.327,3.305 1.493,3.504 C 1.955,3.204 2.183,3.046 2.625,2.714 C 2.443,2.525 2.353,2.431 2.17,2.243"
             id="path3427"
             style="fill:#6f4708;fill-opacity:1;fill-rule:nonzero;stroke:none" /></g><g
           transform="translate(83.8428,41.8047)"
           id="g3429"><path
             d="M 0,0 C 0.024,0.018 0.033,0.026 0.058,0.044 C -0.112,0.222 -0.197,0.309 -0.373,0.479 C -0.457,0.561 -0.541,0.612 -0.624,0.633 C -0.706,0.652 -0.771,0.639 -0.823,0.596 C -0.875,0.552 -0.896,0.493 -0.883,0.418 C -0.869,0.342 -0.819,0.262 -0.73,0.176 C -0.638,0.085 -0.567,0.024 -0.517,-0.01 C -0.466,-0.042 -0.394,-0.071 -0.303,-0.093 C -0.213,-0.115 -0.112,-0.083 0,0 M -0.117,-1.496 C -0.401,-1.152 -0.548,-0.986 -0.853,-0.667 C -0.776,-0.611 -0.739,-0.582 -0.663,-0.526 C -0.821,-0.493 -0.958,-0.448 -1.075,-0.389 C -1.191,-0.33 -1.319,-0.233 -1.458,-0.103 C -1.728,0.151 -1.884,0.4 -1.927,0.657 C -1.946,0.774 -1.938,0.894 -1.899,1.011 C -1.859,1.128 -1.793,1.233 -1.696,1.326 C -1.527,1.487 -1.309,1.554 -1.037,1.517 C -0.726,1.474 -0.391,1.299 -0.058,0.981 C 0.183,0.753 0.299,0.634 0.529,0.393 C 0.554,0.411 0.564,0.42 0.589,0.438 C 0.692,0.515 0.735,0.604 0.713,0.707 C 0.69,0.809 0.597,0.943 0.433,1.103 C 0.317,1.216 0.216,1.291 0.132,1.334 C 0.048,1.377 -0.063,1.413 -0.199,1.437 C -0.268,1.789 -0.307,1.965 -0.397,2.319 C -0.132,2.28 0.112,2.201 0.331,2.081 C 0.55,1.961 0.795,1.775 1.058,1.517 C 1.974,0.618 2.069,-0.1 1.476,-0.479 C 0.838,-0.885 0.519,-1.089 -0.117,-1.496"
             id="path3431"
             style="fill:#6f4708;fill-opacity:1;fill-rule:nonzero;stroke:none" /></g><g
           id="g3433"><g
             id="g3435" /><g
             id="g3441"><g
               clip-path="url(#clipPath3437)"
               id="g3443"
               style="opacity:0.30000299"><g
                 transform="translate(70.1572,50.2456)"
                 id="g3445"><path
                   d="M 0,0 C -11.692,0 -21.205,-8.23 -21.205,-18.347 C -21.205,-28.469 -11.692,-36.704 0,-36.704 C 11.698,-36.704 21.216,-28.469 21.216,-18.347 C 21.216,-8.23 11.698,0 0,0 M 0,2.333 C 12.981,2.333 23.549,-6.943 23.549,-18.347 C 23.549,-29.755 12.981,-39.037 0,-39.037 C -12.983,-39.037 -23.538,-29.755 -23.538,-18.347 C -23.538,-6.943 -12.983,2.333 0,2.333"
                   id="path3447"
                   style="fill:#ffffff;fill-opacity:1;fill-rule:nonzero;stroke:none" /></g></g></g></g></g></g></g></svg>